<?xml version="1.0" standalone="no"?>
<!DOCTYPE svg PUBLIC "-//W3C//DTD SVG 20010904//EN"
 "http://www.w3.org/TR/2001/REC-SVG-20010904/DTD/svg10.dtd">
<svg version="1.0" xmlns="http://www.w3.org/2000/svg"
 width="1042.000000pt" height="1042.000000pt" viewBox="0 0 1042.000000 1042.000000"
 preserveAspectRatio="xMidYMid meet">

<g transform="translate(0.000000,1042.000000) scale(0.100000,-0.100000)"
fill="#000000" stroke="none">
<path d="M4088 10004 c-13 -12 -229 -44 -395 -59 -98 -8 -275 -19 -393 -23
-202 -9 -220 -11 -307 -40 -112 -38 -292 -127 -393 -195 -85 -57 -193 -138
-188 -142 2 -1 64 6 138 16 126 17 402 49 421 49 13 0 11 -3518 -2 -3660 -33
-363 -126 -595 -316 -788 l-73 -75 38 7 c95 17 231 17 432 1 118 -9 233 -15
255 -13 l40 3 6 80 c4 44 9 124 12 178 l6 97 -55 0 -56 0 47 52 c25 28 52 63
59 77 9 17 16 92 20 211 4 102 13 322 21 490 47 966 75 1285 120 1345 l23 30
16 670 c9 369 21 814 26 990 5 176 10 341 10 367 l0 47 78 36 c109 50 446 254
421 255 -3 0 -8 -3 -11 -6z"/>
<path d="M8486 7732 l-338 -267 -94 -220 c-301 -703 -693 -1391 -1559 -2730
-149 -231 -293 -453 -319 -494 l-48 -74 -247 489 c-230 454 -390 764 -1074
2079 -435 837 -555 1081 -583 1193 -20 77 -25 115 -22 185 2 48 3 87 2 87 -2
0 -106 -114 -233 -254 l-230 -254 -15 -138 c-25 -224 -64 -915 -91 -1594 -21
-520 -82 -1363 -125 -1711 -74 -599 -164 -952 -285 -1120 l-37 -52 138 6 c226
10 373 44 547 127 135 64 468 291 407 277 -94 -21 -206 -31 -340 -30 -180 1
-266 17 -264 48 1 11 22 99 47 195 156 600 221 1143 292 2465 14 259 27 474
28 478 1 5 99 -173 216 -395 216 -407 456 -855 714 -1333 77 -143 194 -361
260 -485 66 -124 143 -268 172 -320 198 -360 365 -806 365 -975 0 -27 4 -45
10 -43 6 2 136 145 289 317 l280 315 32 90 c131 371 306 734 546 1134 114 190
216 345 540 820 270 395 441 659 579 892 l109 183 2 -119 c4 -164 30 -843 48
-1229 9 -176 29 -599 45 -940 40 -816 45 -1001 31 -1098 -13 -91 -50 -204 -97
-299 -19 -37 -34 -70 -34 -73 0 -11 173 -4 287 10 287 38 626 145 872 276 90
48 257 154 266 169 2 4 -25 -1 -60 -11 -131 -36 -472 -48 -635 -23 l-36 6 29
57 c46 94 52 225 38 831 -6 283 -18 668 -26 855 -51 1210 -69 1952 -60 2515 3
228 8 423 11 433 3 9 2 17 -3 17 -4 -1 -160 -121 -347 -268z"/>
</g>
</svg>
